<?xml version="1.0" encoding="utf-8"?>
<!-- Generator: Adobe Illustrator 26.1.0, SVG Export Plug-In . SVG Version: 6.00 Build 0)  -->
<svg version="1.1" id="Capa_1" xmlns="http://www.w3.org/2000/svg" xmlns:xlink="http://www.w3.org/1999/xlink" x="0px" y="0px"
	 viewBox="0 0 1550.8 246.9" style="enable-background:new 0 0 1550.8 246.9;" xml:space="preserve">
<style type="text/css">
	.st0{fill:#FFFFFF;}
</style>
<g>
	<path class="st0" d="M763.5,127.1c0-30.9,29-62.4,57-61.4c3.9,0.1,8.1,1.1,11.6,2.9c4.5,2.3,10.2,5.9,7,11.6
		c-3.1,5.7-7.5,0.2-11-1.5c-7-3.3-13.6-0.8-19.5,1.9c-17.8,8.4-28.1,23-31.5,42.1c-1.4,7.8-1.4,16.3,8.7,19.1
		c11.4,3.1,21.5,0.9,28.3-9.7c4-6.4,3.6-13.9,4.8-21c1-6.1,3.3-11.6,10.7-10.2c7.8,1.4,5.9,7.5,4.7,12.9c-2,8.9-3.7,17.9-5.9,26.7
		c-1,4.1-1.3,6.5,3.4,8.9c7,3.5,6.4,12.5-0.9,15.3c-6,2.3-4.3,7.5-5.4,11.5c-2.1,8-1.6,17.5-5.9,24c-5.8,8.8-15.4,0-23.4,0.7
		c-7.6,0.7-16.8,2.4-19.8-7.7c-3-9.9,3.9-16.3,10.7-21.7c6-4.9,13-8.7,19.5-13c1.8-1.2,4.3-2.7,3.2-4.9c-1.5-2.8-3.7-0.2-5.5,0.5
		C782.9,162.6,763.6,149.8,763.5,127.1z M799.5,186.5c12.8,3.4,11-5.9,12.5-12c0.4-1.8,0.4-4.7-2.3-3.5c-6.8,3.1-14.5,6.8-16.4,14.3
		C792.2,190,798.2,185.6,799.5,186.5z"/>
	<path class="st0" d="M109.5,81.6c0-2,0-4,0-6c4.1-5.9,8.2-11.7,12.3-17.6c0,0,0.2-0.2,0.2-0.2c4-1.5,7.9-3.1,11.9-4.6
		c25.6-9.5,56.7-10.4,72.1,10.9c8,11.1,13.1,15.2,21.9,2c2-3,5.8-2.6,9-1.6c2.4,0.8,2.9,2.9,3,5.2c0,3.3-1.2,6.1-4.5,6.8
		c-14.1,3-15.8,10.6-13,24.1c8.1,38.2-15.9,50.5-46.9,47.7c-7.2-0.7-12.5-0.9-18.5,3.3c-9.4,6.5-18.5,2.2-20.4-8.8
		c-1.6-9.4,7.1-16.3,20.2-16c5.3,0.1,12,1.9,10.2-7.2c-1.5-7.1,6-19.2-10.7-18.5C137.8,101.9,118.1,104.5,109.5,81.6z M128.7,66.3
		l-0.3-0.4L128.7,66.3c-2.9-0.6-5.7-1.2-4.5,3.4l-0.2,0.2c-6.3,1.3-6.6,6.8-6.2,11c0.6,6,8.7,11.5,13.6,10.6c1,0.2,2,0.4,3.1,0.6
		c9.3,4,18.6,4.6,27.9,0c0.5-0.2,1-0.4,1.5-0.6c2.5,0,3.8-0.7,1.8-3.2c0.1-1,0.2-2.1,0.2-3.1c5.6-7.1,2-14.1-0.4-21.1
		c-0.3-1.9-0.4-3.7,1.6-4.8c8.2-0.9,11.2,2.3,9.8,10.7c-0.8,4.9-0.2,10.1,0,15.2c0.1,2.3,1.5,6.4,3.4,5.3c6.1-3.6,14.6-1.7,19.3-8.2
		c1.6-0.6,3.2-1.3,4.8-1.9c4.3-1,4.2-2.8,0.9-5.1c-0.4-0.8-0.9-1.7-1.3-2.5c0.6-2.2-0.1-3.6-2.6-3.9c-1.3-1.4-2.6-2.9-3.9-4.3
		c-4.3-12.2-37-17.1-48.6-7.3c-5.9,2.5-11.7,5.1-17.6,7.6c-0.8-0.5-1.5-1-2.3-1.5C129,64.3,128.8,65.3,128.7,66.3z M214.8,108.8
		c-0.1-1.7-0.5-4.1-0.6-6.5c-0.3-10.5-3.9-12.1-14.8-9.4c-17.8,4.3-25.6,12.6-21.6,30.9c0.6,2.7-0.9,5.8-1.3,8.7
		c-0.4,2.7,0.4,4.6,3.4,5.4C198.4,142.6,215.1,129,214.8,108.8z M150.9,143.7c1.9-1.5,6.1-1.2,6.6-5c0.3-2.2-2.4-2.6-4.3-2.3
		c-2.9,0.4-6,1.1-6.2,4.9C146.9,143.3,148.2,144,150.9,143.7z"/>
	<path class="st0" d="M1020.2,143c0.3,6.2,0.3,12.9-7.4,13.1c-7.8,0.2-7-7-7.1-12.1c-0.3-12.9-3.2-26.2,5.1-38c1.7-2.5,3-5.4,6.5-5
		c3.8,0.3,6.7,2.4,7.8,6.1c3.2,10.7,9.5,19.9,14.1,29.8c1.2,2.5,2,5.3,5.3,5.1c3.9-0.1,4.6-3.5,5.2-6.3c1.8-9-1.2-17.6-3.6-26
		c-1.9-6.8,0.8-11.1,6.7-12.3c6.2-1.3,9.4,3.2,9.5,9.2c0.3,11.2,0.7,22.5,0.3,33.7c-0.3,8.4-6,12.5-13.8,14.8
		c-7.6,2.2-13.3,0.1-17.6-6.1c-1.7-2.4-2.9-5.2-4.6-7.6c-1.8-2.4-1.6-7.8-5.2-6.7C1018.1,135.6,1021,140.4,1020.2,143z"/>
	<path class="st0" d="M349.8,134.7c-0.6,3.8,1.9,8.7-2.6,11c-5,2.5-10.2,0.5-14.4-2.6c-3.5-2.5-6.1-6.2-9.7-8.4
		c-4.3-2.6-10.3-7.5-9.8,3.8c0.2,4.3-3.1,6.1-7,6.4c-4.3,0.3-5.6-2.7-5.6-6.3c0-13.1,0-26.2,0.3-39.3c0.1-3,1.6-6.8,4.8-6.6
		c6.5,0.5,10.2-3.9,15-6.5c9.5-5.2,19.1-5,26.6,3.1c8.1,8.9,3.9,17.9-4.4,23.2c-14.5,9.2-8.2,14.3,2.4,19.6c1.6,0.8,3.2,1.6,4.7,2.5
		L349.8,134.7z M318,115.5c7.1-4.8,14.7-8,18.6-15.4c1.4-2.6-1.1-4.4-3.8-4.8c-6.3-1.1-18,11.5-16.5,17.7
		C316.6,113.8,317.3,114.4,318,115.5z"/>
	<path class="st0" d="M1379.3,140.2c0.8-13.4,4.4-24.7,7.3-36.1c1-4.1,3.9-6.8,8.4-5.7c4.5,1.1,3.9,5.2,3.8,8.6
		c-0.1,2.6-1.5,6.7-0.4,7.5c2.8,1.9,5.2-1.6,7.7-2.8c8-3.9,15.8-8.2,23.7-12.2c4.6-2.3,8.8-1.4,11,3.2c2.5,5.3-1.9,6.7-5.6,8.6
		c-10.6,5.4-21,11-31.4,16.7c-1.5,0.8-2.5,2.4-3.7,3.6c1.5,1,2.9,2.3,4.5,2.9c9.2,2.8,17,8,24.8,13.4c5.7,4,7.9,9.3,2.3,14.9
		c-5.4,5.4-9.8,1.7-13.4-2.8c-3.6-4.6-8.6-7.3-13.5-10.1c-4.1-2.3-8.4-4.3-10.7,2.7c-1,3.1-4.2,4.1-7.3,4c-3.6-0.2-5-2.8-5.6-5.9
		C1380.3,146.7,1379.7,142.7,1379.3,140.2z"/>
	<path class="st0" d="M515.7,101.4c1.5,6.5,0.1,12.7-1.6,19c-1.5,5.7,0.5,11,3.8,15.9c2.9,4.3,3.3,8.7-1.8,11.8
		c-5.4,3.2-9.3,0.8-11.9-4.2c-1.2-2.3-3-5-2.8-7.4c0.6-11.7-3.4-15.7-15.3-11.3c-4,1.5-5.6,1.8-4.9,6.6c0.7,4.9,2.6,11.7-5.6,12.7
		c-7.4,0.9-7.7-5.9-8.7-10.4c-2.9-12.8-1.7-25.6,0.9-38.4c0.6-3.2,2.1-5.7,5.9-5.3c3.6,0.4,4.6,3.3,4.8,6.4c0.1,1.6-0.3,3.4,0.2,4.8
		c1.3,3.6-3.8,10.6,4.3,10.4c7.1-0.2,16.9,2.1,17.3-10.2c0-0.3,0.1-0.5,0.1-0.8c1.7-6.4,0.5-16.5,9.7-15.9
		C519.2,86,514.3,95.8,515.7,101.4z"/>
	<path class="st0" d="M972.5,160.4c-24.8-0.2-31.1-9.2-23.7-29.6c0.8-2.3,1.8-4.5,2.5-6.8c4.8-15.8,14-22.9,30.9-23.4
		c5.3-0.2,11.3,0.7,11.7,7.2c0.4,6.8-6.3,6.9-11,8.1c-2,0.5-4.4-0.6-6.4-0.1c-4.1,1.1-11.4-0.1-10.8,5.5c0.5,4.2,6.7,0.6,10.3,0.4
		c3.9-0.3,7.3-0.1,8.1,4.3c0.7,4-1.5,6.9-5.2,7.9c-5.2,1.3-10.6,2-15.9,3c-2.9,0.6-5.3,2-5.2,5.2c0.2,3.4,3,3.9,5.8,4.4
		c5,0.7,10,0.7,13.8-2.9c2.7-2.6,4.9-5.2,8.9-3c3.1,1.7,4.2,4.7,4.5,8.1c0.5,4.3-1.5,7.6-5.4,8.9C980.4,159.1,975,159.9,972.5,160.4
		z"/>
	<path class="st0" d="M1222.7,103.8c0.5,1.8-2.8,6.6,1.3,8.8c4.4,2.4,8.1-1.3,11.7-3.5c7.8-4.7,14.4-10.5,17.3-19.4
		c2.1-6.5,0-10.7-7.6-10.3c-21,1.4-41.4,4.6-58.2,18.9c-2.7,2.3-6,6.5-9.7,3c-3.9-3.8-0.7-8,2-11.5c12.1-15,58.7-28.2,76.9-21.9
		c9.9,3.5,14.1,16.2,8.5,27.3c-3.4,6.7-7,13.3-13.3,18c-3.6,2.7-5.1,5.2,0.5,8c7.7,3.9,11.1,11,10.5,19.4
		c-0.6,8.3-5.8,13.9-13.4,16.6c-11.7,4.2-23.5,7.9-35.4,11.5c-4.7,1.4-9.7,0.7-11.7-4.4c-1.7-4.3-0.4-8.1,4.2-10.9
		c7.4-4.6,1.4-11.3,1.7-16.9c0.2-4.2-4.4-2.8-7.1-2.9c-4-0.2-7.7-0.7-8.8-5.3c-1.1-4.8,1.5-8.4,5.7-9.3c9.8-2.3,11.4-8.6,11.1-17.3
		c-0.2-5.6-0.1-13.7,7.9-13.3C1225.1,89,1221.8,97,1222.7,103.8z M1243.4,70.3c-21.9,0.2-42.1,5.6-59.5,19.4
		c-2.1,1.7-5.8,4.1-3.4,7.1c2.4,3,4.6-0.6,6.6-2.1c18-13.8,38.7-18.1,60.8-17.8c5.6,0.1,8.3,3.2,8.2,8.7
		c-0.1,12.4-8.5,19.3-17.7,25.2c-4.7,3-9.6,8.4-16,4.8c-6.7-3.8-2.6-10.7-3.3-16.2c-0.4-2.8,2.6-7.3-2.7-7.4c-4-0.1-4.5,4.4-4.3,7.5
		c0.9,10.7-0.2,19.9-13.1,22.7c-2.2,0.5-4.6,2.5-3.9,5.4c0.7,3,3.5,2.9,6,2.9c4.4-0.1,10.1-0.5,10.3,5c0.2,6.7,4.4,14.5-2.5,20.4
		c-2.5,2.1-5.9,3.8-3.9,7.7c1.8,3.6,5.9,3.1,8.7,2.2c12.6-3.8,25.5-7.2,37.4-12.6c10.4-4.8,12.1-19,2.8-25.5
		c-11.1-7.8-8.5-12.2-0.5-20.4c7.1-7.3,14.4-16.5,9.2-28.8C1258.7,69.1,1251,70.2,1243.4,70.3z"/>
	<path class="st0" d="M289.9,107.8c-0.7,23.2-12.9,37.1-32,36.6c-12.4-0.4-21.9-10.6-21.6-23.5c0.3-15.9,13.3-32,25.6-31.7
		C282.6,89.8,290.2,94.8,289.9,107.8z M277.4,107.4c-2-10.4-12.4,0.1-18.5-2.4c-5.7-2.4-8.4,8.7-9.5,14.9c-0.9,5.6,1,11.5,8.7,12
		C268.9,132.4,276.6,123.8,277.4,107.4z"/>
	<path class="st0" d="M935.6,131.8c-0.6,0.9-1.2,1.9-1.8,2.8c-4.4,1.1-8.7,2.3-13.2,3.3c-2.3,0.5-5.2-0.7-6.5,1.9
		c-0.5,1,0.2,3.1,1.1,4.1c2.1,2.5,4.8,1.6,7.5,0.9c4.9-1.2,7.9-6.7,13.6-6.2c4.6,3.2,6.3,7.3,3.6,12.4c-3.9,7.2-21.4,10.8-31.2,6.1
		c-9.1-4.4-11.2-12.3-9.1-21.7c1.5-7,3.1-14.1,4.3-21.2c0.5-2.8,1.3-6.4,4-6.2c10.3,0.8,18.1-6.3,27.7-7.5
		c6.1-0.8,12.2-0.2,13.1,7.1c1,8-6.1,5.2-10.3,6.3c-5.5,1.3-10.9,2.7-16.3,4.4c-2.3,0.8-6.4,1.6-5.4,4.8c1.1,3.8,4.9,1.8,7.7,1.3
		c1.9-0.3,3.7-0.8,5.5-1.2c1.1,0.5,2.1,1,3.2,1.6c0.8,1.2,1.7,2.4,2.5,3.6C935.6,129.6,935.6,130.7,935.6,131.8z"/>
	<path class="st0" d="M1317.4,127.8c-0.6,18-11.7,26.3-34.2,25.5c-11.5-0.5-15.2-8.2-15.3-18c-0.1-15,17.6-32.2,32.2-32
		C1308.9,103.3,1317.8,116,1317.4,127.8z M1289.9,119.2c-1.2,1.1-2.5,2.1-3.4,3.3c-3.4,4.8-8.5,10.9-4,15.6c4.6,4.8,12.1,1.9,18-0.9
		c4-1.9,4.9-5.7,4.6-9.5c-0.4-4.3-3.9-2.3-6.3-2.5c-3.2-0.3-4.5-2.5-5.1-5.3C1292.8,117.3,1291.7,116.6,1289.9,119.2z"/>
	<path class="st0" d="M1342,157c-14.2,0.3-21.8-6.5-22.1-19.7c-0.3-12.8,16.9-31.3,29-31.3c9.3,0,20.1,15.6,20.3,29.4
		C1369.4,149.2,1360,156.6,1342,157z M1343.7,144c8.3,0.4,13-3,13-11.6c0-4.8-1.1-8.8-7.1-8.3c-7.6,0.7-15.7,1.4-16.2,11.7
		C1333.1,143.1,1338.5,143.7,1343.7,144z"/>
	<path class="st0" d="M350,134.7c4.1-1,1.4-3.9,1.4-5.7c-0.1-13.9,9.7-29.4,22.5-34.7c6.5-2.7,12,0.6,16.6,4
		c9,6.8,12.2,17,11.3,27.8c-0.9,10-8.5,14.4-17.5,16.6c-10.7,2.6-21.3,4.8-30-5.1c-1.1-1.3-1.2-4.7-4.5-2.9
		C349.8,134.7,350,134.7,350,134.7z M389.6,119.6c-0.8-4-0.4-9.7-6.5-8.9c-9,1.1-18.8,2.3-18.8,15.1c0,5.2,2.8,7.8,7.4,7.2
		C380,132,389.1,131.4,389.6,119.6z"/>
	<path class="st0" d="M558.6,141.5c1.8-5.4-0.9-8.1-8.8-8.6c-6.9-0.5-9.8-6.6-11.6-12.9c-1.6-5.4-3.6-10.7-5.2-16
		c-0.9-2.8-1.8-6,1.9-7.7c3.6-1.7,6.7,0.2,8.1,3.2c2.3,5.1,3.9,10.5,5.7,15.8c1.1,3.3,2.7,5.9,6.7,5.6c3.9-0.3,6.6-2.3,7.5-6.1
		c1.1-4.7,2-9.4,3.2-14.1c0.8-3.4,2.6-6.1,6.7-5.5c3.7,0.5,4.9,3.6,4.7,6.6c-0.5,7.4-1.7,14.8-2.6,22.3c-0.9,7.4-2.5,14.8-0.3,22.3
		c1.3,4.4,2.9,8.9-1.4,12.6c-2.7,2.3-6,2.6-9.1,1.2c-4.9-2.3-5-7.2-5.4-11.7C558.5,146.7,558.6,145.1,558.6,141.5z"/>
	<path class="st0" d="M109.5,81.6c8.6,22.9,28.3,20.3,46.7,19.5c16.7-0.7,9.2,11.4,10.7,18.5c1.9,9.1-4.9,7.3-10.2,7.2
		c-13.1-0.3-21.8,6.6-20.2,16c1.9,11,11,15.3,20.4,8.8c6.1-4.2,11.4-4,18.5-3.3c30.9,2.9,55-9.5,46.9-47.7
		c-2.9-13.5-1.1-21.1,13-24.1c3.3-0.7,4.6-3.5,4.5-6.8c0-2.3-0.5-4.4-3-5.2c-3.2-1-7-1.3-9,1.6c-8.8,13.2-13.9,9.1-21.9-2
		c-15.4-21.3-46.5-20.4-72.1-10.9c-4,1.5-7.9,3.1-11.9,4.6c26.3-23.7,70.8-18.8,90.1,10c6,8.9,9,2.1,12.4-2c3.7-4.4,8.1-6.4,13.6-4
		c5.6,2.4,4.5,7.3,3.7,11.9c-0.6,3.3-2.7,4.7-6.1,5.5c-9.6,2.2-14,6-11.3,17.9c9.7,42.1-14.7,57.6-51.8,53.3
		c-5.2-0.6-8.6,0.2-12.6,2.6c-6.7,4-13.8,7.7-20.6,0.7c-5.5-5.6-7.6-12.8-3.5-20c4.6-8,11.7-12.4,21.5-11.2c2.2,0.3,5.8,3.3,6.3,0.6
		c1-5.4,0.4-11.1-0.1-16.7c-0.4-3.6-3.6-2.2-5.9-2.2c-10.5,0-21.1,1.2-31.4-2.1C116.2,98.9,109.5,93,109.5,81.6z"/>
	<path class="st0" d="M617.4,160.9c-5.6-0.1-9.2-2.4-9.5-8.5c-0.3-6.1,3-7.9,8.5-8.1c3-0.1,7.6,1.3,8.4-2.6c0.7-3.8-4.2-4.1-6.8-5.7
		c-3.6-2.3-7.9-3.8-11.1-6.5c-9.7-8.1-8.1-19.4,3.6-24.1c6.2-2.5,12.4-5.6,19.4-4.8c5.1,0.6,8.6,3.3,7.7,9.2c-0.9,5.9-4.5,5.1-9,4
		c-4.9-1.2-11,0.1-12.7,4.6c-1.8,4.7,5,4.9,7.8,7.3c2,1.7,4.9,2.5,6.7,4.5c4.4,4.9,12.7,7.7,9.7,16.8
		C638.2,152,623.6,160.9,617.4,160.9z"/>
	<path class="st0" d="M434.7,115.3c1,6.3,1.5,12.9,3.3,19c1.8,6.2,0.7,10.2-5.9,11.4c-6.8,1.1-9.5-4-9.9-9.1
		c-0.7-8-0.1-16.1,0.3-24.1c0.3-5.7-0.7-9-7.6-6.6c-3.3,1.2-6.8,0.7-7.8-3.3c-1-3.6,1.7-5.6,4.7-6.5c10.3-3.1,20.6-6.4,31.1-8.8
		c3.4-0.8,7.6,0.6,10.9,2c3.6,1.5,7.7,4,6.4,9c-1.5,5.5-6.5,4-10.3,3.7C439.6,100.8,431.4,101.3,434.7,115.3z"/>
	<path class="st0" d="M848,136.2c2.4-8.5,2.4-17.6,1.4-26.7c-0.4-3.3,0.8-6.7,4.7-7.5c11.2-2.2,19-17.9,32.7-9.3
		c10.1,6.4,9,23-2.4,34c-5.1,4.9-5.6,7.1,1,10.7c6.8,3.7,8.7,10.2,2.9,16c-5.6,5.5-10.7,1.1-15.1-3.2c-3.8-3.7-7.3-9.7-12.7-1.3
		c-1.5,2.4-4.7,2.9-7.4,1.4C847.6,147.3,849.3,141.4,848,136.2z M851.6,137.1c2.9,2.3-2.1,14.8,6,9.1c10.1-7.1,13.3-2.2,18.8,3.2
		c3.1,3,6.7,5.3,10.4,1.3c3.8-4.1,2.4-8.6-2-10.7c-11.5-5.5-7.5-10.4-0.7-16.9c8.9-8.5,9.5-22.6,1.3-27.7c-12.9-8.2-19,7.6-29.3,9.2
		c-3.4,0.5-4.6,3.3-3.9,6C854.4,119.1,851.9,127.5,851.6,137.1z"/>
	<path class="st0" d="M581.8,94.4c3.1-6.6,6.4-14.4,10.4-22c1.1-2.2,4.2-2.4,6.6-1.1c2.7,1.5,4,3.9,3,6.8c-2.5,7.1-5.2,14.1-8.1,21
		c-1.2,2.8-3.2,5.3-6.8,4.4C583,102.6,582.7,99.1,581.8,94.4z"/>
	<path class="st0" d="M121.8,58c-4.1,5.9-8.2,11.7-12.3,17.6C110.1,67.3,114.1,61.4,121.8,58z"/>
	<path class="st0" d="M197.7,64.5c-2.2-1.5-4.2-3.4-6.7-4.3c-4.4-1.8-9.6-5-13.3-3.8c-3.2,1,3.8,4.7,2.4,8.3c-0.1,0.2,0,0.5,0,0.8
		c0.1,6.7-2.3,15.6,1,19.4c4.3,4.8,11.9-3.2,18.6-2.6c-4.7,6.6-13.1,4.6-19.3,8.2c-1.9,1.1-3.3-2.9-3.4-5.3
		c-0.2-5.1-0.8-10.2,0-15.2c1.4-8.3-1.6-11.6-9.8-10.7c1.9-5.4-2-4.1-4.7-3.8c-4.5,0.5-8.9,1.1-13.4,1.7
		C160.7,47.4,193.4,52.3,197.7,64.5z"/>
	<path class="st0" d="M124,69.9c-5.9,10,0.7,15.8,7.4,21.6c-4.9,0.8-13-4.6-13.6-10.6C117.3,76.8,117.7,71.2,124,69.9z"/>
	<path class="st0" d="M134.4,92.1c9.3,0,18.6,0,27.9,0C153,96.7,143.7,96.2,134.4,92.1z"/>
	<path class="st0" d="M165.9,85.2c-0.1-7-0.2-14.1-0.4-21.1C167.9,71.1,171.5,78.1,165.9,85.2z"/>
	<path class="st0" d="M204.5,80.3c0.3-1.7,0.6-3.4,0.9-5.1C208.7,77.5,208.8,79.2,204.5,80.3z"/>
	<path class="st0" d="M128.6,66.3c-1.5,1.1-2.9,2.2-4.4,3.4C123,65.1,125.8,65.7,128.6,66.3z"/>
	<path class="st0" d="M163.8,91.5c0.6-1.1,1.2-2.2,1.8-3.2C167.7,90.8,166.3,91.5,163.8,91.5z"/>
	<path class="st0" d="M204.1,72.6c-0.9-1.3-1.7-2.6-2.6-3.9C204,69,204.6,70.4,204.1,72.6z"/>
	<path class="st0" d="M131.5,64.9c-0.9,0.5-1.9,1-2.8,1.4c0.2-1,0.3-1.9,0.5-2.9C130,63.9,130.7,64.4,131.5,64.9z"/>
	<path class="st0" d="M1243.4,70.3c7.6-0.1,15.4-1.2,19.2,8c5.2,12.3-2.1,21.4-9.2,28.8c-8,8.2-10.6,12.6,0.5,20.4
		c9.3,6.5,7.6,20.7-2.8,25.5c-11.9,5.5-24.8,8.8-37.4,12.6c-2.8,0.9-6.9,1.4-8.7-2.2c-2-3.8,1.4-5.5,3.9-7.7
		c6.9-5.9,2.8-13.6,2.5-20.4c-0.2-5.5-5.9-5.1-10.3-5c-2.4,0-5.2,0.1-6-2.9c-0.7-2.9,1.6-4.9,3.9-5.4c12.9-2.9,14-12.1,13.1-22.7
		c-0.3-3.1,0.3-7.5,4.3-7.5c5.3,0.1,2.3,4.6,2.7,7.4c0.8,5.5-3.4,12.4,3.3,16.2c6.4,3.6,11.3-1.8,16-4.8
		c9.2-5.9,17.6-12.8,17.7-25.2c0.1-5.6-2.6-8.7-8.2-8.7c-22.1-0.3-42.9,4-60.8,17.8c-2,1.5-4.2,5.1-6.6,2.1c-2.4-3,1.2-5.4,3.4-7.1
		C1201.3,75.9,1221.5,70.5,1243.4,70.3z M1221.6,136.5c3.5,3.5-1.3,13.8,7.5,13.4c7.5-0.3,19.2-0.9,19.5-11.3
		c0.3-8.3-8.8-11.2-16.8-11.4C1226.3,127,1221.5,128.7,1221.6,136.5z"/>
	<path class="st0" d="M1293.5,120c-1.2-0.2-2.4-0.5-3.6-0.7C1291.7,116.6,1292.8,117.3,1293.5,120z"/>
	<path class="st0" d="M851.6,137.1c0.3-9.5,2.8-17.9,0.5-26.5c-0.7-2.7,0.5-5.5,3.9-6c10.3-1.6,16.4-17.4,29.3-9.2
		c8.2,5.2,7.6,19.2-1.3,27.7c-6.8,6.5-10.7,11.4,0.7,16.9c4.4,2.1,5.8,6.6,2,10.7c-3.7,4-7.3,1.7-10.4-1.3
		c-5.5-5.4-8.7-10.3-18.8-3.2C849.5,151.8,854.5,139.3,851.6,137.1z M867.5,123.5c5-3.8,11.8-6.7,11.6-14.7
		c-0.1-2.1-0.8-6.2-3.8-4.5c-6.2,3.4-8.6,10-10.5,16.4C864.2,122.3,864.8,123.8,867.5,123.5z"/>
</g>
</svg>
